<svg width="667" height="667" viewBox="0 0 667 667" fill="none" xmlns="http://www.w3.org/2000/svg">
<path d="M602.587 226.758C602.587 289.954 551.356 341.184 488.161 341.184C424.965 341.184 373.735 289.954 373.735 226.758C373.735 163.564 424.965 112.333 488.161 112.333C551.356 112.333 602.587 163.564 602.587 226.758Z" fill="#E5F1FF"/>
<path d="M260.212 467.981C260.212 504.917 230.268 534.861 193.332 534.861C156.396 534.861 126.452 504.917 126.452 467.981C126.452 431.045 156.396 401.102 193.332 401.102C230.268 401.102 260.212 431.045 260.212 467.981Z" fill="#E5F1FF"/>
<path d="M192.439 250.712C170.85 250.712 153.349 233.211 153.349 211.621C153.349 190.032 170.85 172.531 192.439 172.531C214.029 172.531 231.53 190.032 231.53 211.621C231.53 233.211 214.029 250.712 192.439 250.712ZM192.439 150.479C158.671 150.479 131.298 177.853 131.298 211.621C131.298 245.389 158.671 272.764 192.439 272.764C226.207 272.764 253.581 245.389 253.581 211.621C253.581 177.853 226.207 150.479 192.439 150.479Z" fill="#A9CCEA"/>
<path d="M423.436 541.387C423.436 545.262 420.296 548.403 416.42 548.403H239.008C235.132 548.403 231.992 545.262 231.992 541.387C231.992 537.512 235.132 534.37 239.008 534.37H301.988L310.674 518.334H325.709H329.718H344.753L353.44 534.37H416.42C420.296 534.37 423.436 537.512 423.436 541.387Z" fill="#0F3157"/>
<path d="M340.784 512.32H311.717V503.8H340.784V512.32Z" fill="#FF4D6B"/>
<path d="M340.784 498.287H311.717V489.767H340.784V498.287Z" fill="#FF4D6B"/>
<path d="M557.686 460.935C552.63 462.875 547.139 463.939 541.4 463.939C516.296 463.939 495.944 443.587 495.944 418.483C495.944 393.379 516.296 373.027 541.4 373.027C566.504 373.027 586.855 393.379 586.855 418.483C586.855 425.21 585.394 431.595 582.771 437.341" stroke="#FF4D6B" stroke-width="1.504" stroke-miterlimit="10" stroke-linecap="round" stroke-linejoin="round"/>
<path d="M363.546 247.562C347.665 247.562 334.79 234.688 334.79 218.806C334.79 202.924 347.665 190.049 363.546 190.049C379.429 190.049 392.304 202.924 392.304 218.806C392.304 234.688 379.429 247.562 363.546 247.562ZM429.34 205.081H422.081C420.574 198.633 418.04 192.584 414.642 187.118L419.773 181.988C421.985 179.777 421.985 176.19 419.773 173.978L408.374 162.578C406.162 160.368 402.576 160.368 400.364 162.578L395.234 167.709C389.769 164.313 383.72 161.777 377.272 160.27V153.013C377.272 149.885 374.736 147.349 371.608 147.349H355.486C352.357 147.349 349.822 149.885 349.822 153.013V160.27C343.373 161.777 337.325 164.313 331.86 167.709L326.73 162.578C324.518 160.368 320.932 160.368 318.72 162.578L307.321 173.978C305.108 176.19 305.108 179.777 307.321 181.988L312.45 187.118C309.054 192.584 306.518 198.633 305.012 205.081H297.754C294.628 205.081 292.092 207.617 292.092 210.745V226.866C292.092 229.994 294.628 232.53 297.754 232.53H305.012C306.518 238.978 309.054 245.028 312.45 250.493L307.321 255.622C305.108 257.834 305.108 261.421 307.321 263.633L318.72 275.033C320.932 277.244 324.518 277.244 326.73 275.033L331.86 269.902C337.324 273.298 343.373 275.834 349.822 277.34V284.597C349.822 287.725 352.357 290.261 355.486 290.261H371.608C374.736 290.261 377.272 287.725 377.272 284.597V277.34C383.72 275.834 389.769 273.298 395.234 269.902L400.364 275.033C402.576 277.244 406.162 277.244 408.374 275.033L419.773 263.633C421.985 261.421 421.985 257.834 419.773 255.622L414.644 250.493C418.04 245.028 420.574 238.978 422.081 232.53H429.34C432.466 232.53 435.004 229.994 435.004 226.866V210.745C435.004 207.617 432.466 205.081 429.34 205.081Z" fill="#289DF2"/>
<path d="M128.014 485.937C119.57 485.937 112.725 479.091 112.725 470.646V231.363C112.725 222.918 119.57 216.073 128.014 216.073H527.412C535.857 216.073 542.702 222.918 542.702 231.362V470.646C542.702 479.091 535.857 485.937 527.412 485.937H128.014Z" fill="#0F3775"/>
<path d="M188.429 259.232H144.076V249.459H188.429V259.232Z" fill="#284D89"/>
<path d="M241.804 259.232H197.45V249.459H241.804V259.232Z" fill="#284D89"/>
<path d="M377.118 259.232H332.765V249.459H377.118V259.232Z" fill="#284D89"/>
<path d="M512.433 259.232H468.079V249.459H512.433V259.232Z" fill="#284D89"/>
<path d="M327.126 259.232H247.817V249.459H327.126V259.232Z" fill="#FF4D6B"/>
<path d="M461.689 259.232H382.381V249.459H461.689V259.232Z" fill="#2889DB"/>
<path d="M152.096 246.452H144.328V241.691H152.096V246.452Z" fill="#2889DB"/>
<path d="M225.391 272.012H144.328V267.251H225.391V272.012Z" fill="white"/>
<path d="M168.384 280.407H144.328V275.645H168.384V280.407Z" fill="white"/>
<path d="M230.152 451.679H154.977C149.373 451.679 144.829 447.135 144.829 441.531V305.464C144.829 299.859 149.373 295.316 154.977 295.316H230.152C235.757 295.316 240.3 299.859 240.3 305.464V441.531C240.3 447.135 235.757 451.679 230.152 451.679Z" fill="#284D89"/>
<path d="M188.807 323.129H156.857V318.243H188.807V323.129Z" fill="white"/>
<path d="M188.807 334.031H156.857V329.144H188.807V334.031Z" fill="white"/>
<path d="M188.807 344.932H156.857V340.045H188.807V344.932Z" fill="white"/>
<path d="M176.401 390.412H156.856V385.525H176.401V390.412Z" fill="white"/>
<path d="M176.401 401.312H156.856V396.425H176.401V401.312Z" fill="white"/>
<path d="M209.98 401.312H190.435V396.425H209.98V401.312Z" fill="white"/>
<path d="M169.136 378.008H156.857V373.121H169.136V378.008Z" fill="white"/>
<path d="M215.995 378.008H209.48V373.121H215.995V378.008Z" fill="white"/>
<path d="M206.973 378.008H173.395V373.121H206.973V378.008Z" fill="#FF4D6B"/>
<path d="M161.555 359.591H156.857V354.704H161.555V359.591Z" fill="#2889DB"/>
<path d="M161.555 368.235H156.857V363.348H161.555V368.235Z" fill="#FF4D6B"/>
<path d="M182.917 402.314H181.163L185.36 396.05H187.115L182.917 402.314Z" fill="white"/>
<path d="M229.4 414.843H156.856V410.708H229.4V414.843Z" fill="#282E5C"/>
<path d="M229.4 424.24H156.856V420.105H229.4V424.24Z" fill="#282E5C"/>
<path d="M578.335 359.965H378.871C373.89 359.965 369.851 355.928 369.851 350.944V296.819C369.851 291.837 373.89 287.799 378.871 287.799H578.335C583.317 287.799 587.357 291.837 587.357 296.819V350.944C587.357 355.928 583.317 359.965 578.335 359.965Z" fill="#289DF2"/>
<path d="M434.502 334.407C434.502 334.407 445.527 307.344 477.101 313.859C508.674 320.373 524.711 355.956 565.306 326.889" stroke="white" stroke-width="1.504" stroke-miterlimit="10"/>
<path d="M536.738 340.421H532.228V335.909H536.738V340.421Z" fill="#289DF2" stroke="white" stroke-width="1.504" stroke-miterlimit="10"/>
<path d="M440.014 312.606H497.147Z" fill="#289DF2"/>
<path d="M440.014 312.606H497.147" stroke="white" stroke-width="0.752" stroke-miterlimit="10"/>
<path d="M505.917 339.418H563.051Z" fill="#289DF2"/>
<path d="M505.917 339.418H563.051" stroke="white" stroke-width="0.752" stroke-miterlimit="10"/>
<path d="M468.58 314.861H464.069V310.351H468.58V314.861Z" fill="#289DF2" stroke="white" stroke-width="1.504" stroke-miterlimit="10"/>
<path d="M407.94 378.508H364.84C361.242 378.508 358.325 375.591 358.325 371.994V307.343C358.325 303.746 361.242 300.828 364.84 300.828H407.94C411.538 300.828 414.456 303.746 414.456 307.343V371.994C414.456 375.591 411.538 378.508 407.94 378.508Z" fill="#284D89"/>
<path d="M399.044 316.259H367.094V311.853H399.044V316.259Z" fill="white"/>
<path d="M399.044 326.085H367.094V321.68H399.044V326.085Z" fill="white"/>
<path d="M379.122 335.912H367.094V331.507H379.122V335.912Z" fill="white"/>
<path d="M387.893 346.076H367.094V341.672H387.893V346.076Z" fill="#289DF2"/>
<path d="M381.126 355.903H367.094V351.497H381.126V355.903Z" fill="#289DF2"/>
<path d="M381.126 365.729H367.094V361.324H381.126V365.729Z" fill="white"/>
<path d="M552.275 278.025H574.827" stroke="#284D89" stroke-width="3.00667" stroke-miterlimit="10" stroke-linecap="round" stroke-linejoin="round"/>
<path d="M501.602 405.278L493.818 411.368L482.65 413.399C482.65 413.399 472.16 412.723 471.145 412.723C470.13 412.723 463.022 406.97 463.022 406.97L449.825 402.232L440.686 405.616L429.857 403.247L413.614 402.232L398.046 408.323L385.186 410.354L373.682 414.076L360.821 415.091L346.946 404.262L334.086 401.894L320.888 409.339L310.397 412.723L298.488 412.384L283.476 421.522H274.525L259.409 426.823" stroke="#FF5C66" stroke-width="1.35333" stroke-miterlimit="10"/>
<path d="M259.635 427.049H501.94" stroke="#F7F7F7" stroke-width="0.338667" stroke-miterlimit="10"/>
<path d="M259.748 430.095H257.267V424.004H259.748V430.095Z" fill="#F7F7F7"/>
<path d="M502.954 430.095H500.473V424.004H502.954V430.095Z" fill="#F7F7F7"/>
<path d="M501.716 427.049V406.631" stroke="#F7F7F7" stroke-width="0.338667" stroke-miterlimit="10"/>
<path d="M503.068 405.616C503.068 406.675 502.21 407.532 501.151 407.532C500.092 407.532 499.234 406.675 499.234 405.616C499.234 404.556 500.092 403.699 501.151 403.699C502.21 403.699 503.068 404.556 503.068 405.616Z" fill="#F7F7F7"/>
<path d="M260.417 432.929H262.214C262.828 432.929 263.276 433.073 263.557 433.362C263.839 433.643 263.98 434.08 263.98 434.672V434.975C263.98 435.365 263.915 435.683 263.785 435.928C263.662 436.174 263.471 436.351 263.211 436.459V436.481C263.803 436.683 264.099 437.21 264.099 438.062V438.712C264.099 439.296 263.943 439.744 263.633 440.054C263.33 440.358 262.882 440.509 262.29 440.509H260.417V432.929ZM262.074 436.015C262.312 436.015 262.489 435.954 262.604 435.831C262.727 435.708 262.788 435.503 262.788 435.214V434.791C262.788 434.517 262.738 434.319 262.637 434.196C262.543 434.073 262.391 434.012 262.182 434.012H261.608V436.015H262.074ZM262.29 439.426C262.5 439.426 262.655 439.372 262.756 439.264C262.857 439.148 262.907 438.953 262.907 438.679V438.019C262.907 437.672 262.846 437.434 262.723 437.304C262.608 437.167 262.413 437.098 262.139 437.098H261.608V439.426H262.29ZM264.795 432.929H268.044V434.012H265.986V436.015H267.621V437.098H265.986V439.426H268.044V440.509H264.795V432.929ZM269.66 434.012H268.415V432.929H272.097V434.012H270.852V440.509H269.66V434.012ZM273.097 432.929H274.711L275.945 440.509H274.754L274.537 439.004V439.026H273.184L272.967 440.509H271.863L273.097 432.929ZM274.397 437.997L273.866 434.25H273.844L273.325 437.997H274.397ZM279.189 434.012H277.944V432.929H281.625V434.012H280.38V440.509H279.189V434.012ZM282.202 432.929H285.451V434.012H283.393V436.015H285.029V437.098H283.393V439.426H285.451V440.509H282.202V432.929ZM287.706 440.618C287.129 440.618 286.692 440.455 286.396 440.13C286.1 439.798 285.952 439.325 285.952 438.712V438.278H287.078V438.798C287.078 439.289 287.284 439.535 287.695 439.535C287.897 439.535 288.049 439.477 288.15 439.361C288.258 439.239 288.313 439.044 288.313 438.777C288.313 438.459 288.24 438.181 288.096 437.943C287.952 437.697 287.684 437.405 287.295 437.066C286.804 436.632 286.461 436.243 286.266 435.896C286.071 435.542 285.973 435.145 285.973 434.705C285.973 434.106 286.125 433.643 286.428 433.319C286.731 432.987 287.172 432.82 287.749 432.82C288.32 432.82 288.749 432.987 289.038 433.319C289.334 433.643 289.482 434.113 289.482 434.726V435.04H288.356V434.651C288.356 434.391 288.305 434.203 288.204 434.087C288.103 433.965 287.955 433.903 287.76 433.903C287.363 433.903 287.165 434.145 287.165 434.629C287.165 434.903 287.237 435.16 287.381 435.398C287.533 435.636 287.804 435.925 288.193 436.264C288.692 436.697 289.034 437.091 289.222 437.445C289.41 437.798 289.504 438.213 289.504 438.69C289.504 439.311 289.349 439.787 289.038 440.119C288.735 440.452 288.291 440.618 287.706 440.618ZM291.118 434.012H289.873V432.929H293.555V434.012H292.309V440.509H291.118V434.012Z" fill="#F7F7F7"/>
<path d="M492.055 398.128C491.477 398.128 491.037 397.965 490.734 397.641C490.43 397.308 490.279 396.836 490.279 396.222V395.626H491.405V396.308C491.405 396.799 491.611 397.045 492.022 397.045C492.434 397.045 492.639 396.799 492.639 396.308V394.608C492.639 394.11 492.434 393.861 492.022 393.861C491.611 393.861 491.405 394.11 491.405 394.608V394.673H490.279L490.495 390.439H493.636V391.522H491.557L491.459 393.33H491.481C491.705 392.962 492.047 392.778 492.51 392.778C492.943 392.778 493.271 392.926 493.495 393.222C493.719 393.518 493.831 393.948 493.831 394.511V396.222C493.831 396.836 493.679 397.308 493.376 397.641C493.073 397.965 492.632 398.128 492.055 398.128ZM496.369 398.128C495.784 398.128 495.337 397.962 495.026 397.63C494.716 397.298 494.561 396.828 494.561 396.222V392.237C494.561 391.63 494.716 391.161 495.026 390.829C495.337 390.497 495.784 390.331 496.369 390.331C496.954 390.331 497.401 390.497 497.712 390.829C498.022 391.161 498.178 391.63 498.178 392.237V396.222C498.178 396.828 498.022 397.298 497.712 397.63C497.401 397.962 496.954 398.128 496.369 398.128ZM496.369 397.045C496.781 397.045 496.986 396.796 496.986 396.298V392.161C496.986 391.663 496.781 391.414 496.369 391.414C495.958 391.414 495.752 391.663 495.752 392.161V396.298C495.752 396.796 495.958 397.045 496.369 397.045ZM500.705 398.128C500.12 398.128 499.673 397.962 499.362 397.63C499.052 397.298 498.896 396.828 498.896 396.222V392.237C498.896 391.63 499.052 391.161 499.362 390.829C499.673 390.497 500.12 390.331 500.705 390.331C501.29 390.331 501.737 390.497 502.048 390.829C502.358 391.161 502.513 391.63 502.513 392.237V396.222C502.513 396.828 502.358 397.298 502.048 397.63C501.737 397.962 501.29 398.128 500.705 398.128ZM500.705 397.045C501.116 397.045 501.322 396.796 501.322 396.298V392.161C501.322 391.663 501.116 391.414 500.705 391.414C500.293 391.414 500.088 391.663 500.088 392.161V396.298C500.088 396.796 500.293 397.045 500.705 397.045Z" fill="#F7F7F7"/>
<path d="M477.123 443.969H474.867L471.258 435.848H473.514L477.123 443.969Z" fill="#28385E"/>
<path d="M482.989 443.969H480.733L477.124 435.848H479.38L482.989 443.969Z" fill="#28385E"/>
<path d="M488.855 443.969H486.599L482.99 435.848H485.246L488.855 443.969Z" fill="#28385E"/>
<path d="M494.721 443.969H492.465L488.855 435.848H491.111L494.721 443.969Z" fill="#28385E"/>
<path d="M500.473 443.969H498.219L494.608 435.848H496.864L500.473 443.969Z" fill="#28385E"/>
<path d="M453.997 164.336H490.681V170.906H453.997V164.336Z" fill="#A9CCEA"/>
<path d="M453.997 176.093H509.309V182.663H453.997V176.093Z" fill="#A9CCEA"/>
<path d="M453.997 187.851H522.205V194.421H453.997V187.851Z" fill="#A9CCEA"/>
<path d="M453.997 199.608H480.077V206.179H453.997V199.608Z" fill="#A9CCEA"/>
<path d="M69.1025 243.52H105.787V250.091H69.1025V243.52Z" fill="#2889DB"/>
<path d="M69.1025 255.277H124.415V261.847H69.1025V255.277Z" fill="#A9CCEA"/>
<path d="M69.1025 267.035H137.312V273.605H69.1025V267.035Z" fill="#A9CCEA"/>
<path d="M69.1025 278.792H95.1825V285.363H69.1025V278.792Z" fill="#A9CCEA"/>
<path d="M316.979 494.528H160.616V474.231H316.979V494.528Z" stroke="#289DF2" stroke-width="1.504" stroke-miterlimit="10"/>
<path d="M243.559 360.467H236.041V314.36H243.559V360.467Z" stroke="#289DF2" stroke-width="1.504" stroke-miterlimit="10"/>
<path d="M567.31 418.483C567.31 432.793 555.71 444.394 541.4 444.394C527.09 444.394 515.49 432.793 515.49 418.483C515.49 404.174 527.09 392.573 541.4 392.573C555.71 392.573 567.31 404.174 567.31 418.483Z" fill="#FF4D6B"/>
<path d="M539.523 416.052L529.231 419.823L539.523 423.563V427.426L524.812 421.832V417.814L539.523 412.222V416.052Z" fill="#F9FBFC"/>
<path d="M542.883 412.222L557.594 417.814V421.832L542.883 427.426V423.563L553.174 419.823L542.883 416.052V412.222Z" fill="#F9FBFC"/>
<path d="M584.6 439.65C584.6 441.518 583.085 443.034 581.217 443.034C579.349 443.034 577.834 441.518 577.834 439.65C577.834 437.783 579.349 436.269 581.217 436.269C583.085 436.269 584.6 437.783 584.6 439.65Z" stroke="#FF4D6B" stroke-width="1.504" stroke-miterlimit="10"/>
<path d="M274.881 207.361H152.346V194.583H274.881V207.361Z" stroke="#289DF2" stroke-width="1.504" stroke-miterlimit="10"/>
<path d="M233.535 202.475H157.608V198.716H233.535V202.475Z" fill="#289DF2"/>
<path d="M346.296 298.824H256.588V294.313H346.296V298.824Z" fill="#284D89"/>
<path d="M297.245 298.824H256.588V294.313H297.245V298.824Z" fill="#2889DB"/>
<path d="M346.296 310.476H256.588V305.965H346.296V310.476Z" fill="#284D89"/>
<path d="M319.045 310.476H256.588V305.965H319.045V310.476Z" fill="#FF4D6B"/>
<path d="M346.296 322.128H256.588V317.617H346.296V322.128Z" fill="#284D89"/>
<path d="M274.881 322.128H256.588V317.617H274.881V322.128Z" fill="#1AE5FF"/>
<path d="M258.719 288.175H256.965V286.42H258.719V288.175Z" fill="#284D89"/>
<path d="M264.732 288.175H262.977V286.42H264.732V288.175Z" fill="#284D89"/>
<path d="M270.747 288.175H268.993V286.42H270.747V288.175Z" fill="#284D89"/>
<path d="M426.817 350.777H423.895V347.855H426.817V350.777Z" fill="white"/>
<path d="M436.84 350.777H433.917V347.855H436.84V350.777Z" fill="white"/>
<path d="M446.864 350.777H443.94V347.855H446.864V350.777Z" fill="white"/>
<path d="M471.572 237.165H466.091V231.684H471.572V237.165Z" fill="white"/>
<path d="M490.365 237.165H484.884V231.684H490.365V237.165Z" fill="white"/>
<path d="M509.16 237.165H503.678V231.684H509.16V237.165Z" fill="white"/>
<path d="M393.892 463.691H388.411V458.211H393.892V463.691Z" fill="white"/>
<path d="M412.685 463.691H407.204V458.211H412.685V463.691Z" fill="white"/>
<path d="M431.478 463.691H425.997V458.211H431.478V463.691Z" fill="white"/>
<path d="M161.368 309.348H158.444V306.425H161.368V309.348Z" fill="white"/>
<path d="M171.391 309.348H168.467V306.425H171.391V309.348Z" fill="white"/>
<path d="M181.413 309.348H178.49V306.425H181.413V309.348Z" fill="white"/>
<path d="M568.312 307.594H519.7V302.833H568.312V307.594Z" fill="white"/>
<path d="M534.125 315.989H519.7V311.228H534.125V315.989Z" fill="#287DD1"/>
<path d="M127.538 312.606H117.014V302.08H107.241V312.606H96.717V322.379H107.241V332.903H117.014V322.379H127.538V312.606Z" fill="#1AE5FF"/>
<path d="M99.3759 341.924H92.9585V335.508H86.9999V341.924H80.5825V347.884H86.9999V354.3H92.9585V347.884H99.3759V341.924Z" fill="#2889DB"/>
<path d="M275.022 361.356C270.285 361.356 266.445 357.516 266.445 352.778C266.445 348.042 270.285 344.202 275.022 344.202C279.759 344.202 283.599 348.042 283.599 352.778C283.599 357.516 279.759 361.356 275.022 361.356ZM275.022 336.321C265.933 336.321 258.563 343.689 258.563 352.778C258.563 361.869 265.933 369.237 275.022 369.237C284.111 369.237 291.481 361.869 291.481 352.778C291.481 343.689 284.111 336.321 275.022 336.321Z" fill="#284D89"/>
<path d="M263.818 351.156C265.346 351.156 266.688 350.246 267.382 348.884C268.801 346.106 271.688 344.202 275.022 344.202C278.357 344.202 281.244 346.106 282.661 348.884C283.357 350.246 284.697 351.156 286.226 351.156C289.106 351.156 291.077 348.138 289.81 345.551C287.134 340.084 281.518 336.32 275.022 336.32C268.525 336.32 262.909 340.084 260.234 345.552C258.968 348.138 260.937 351.156 263.818 351.156Z" fill="#289DF2"/>
<path d="M327.702 352.779C327.702 357.516 323.862 361.356 319.125 361.356C314.387 361.356 310.547 357.516 310.547 352.779C310.547 348.042 314.387 344.202 319.125 344.202C323.862 344.202 327.702 348.042 327.702 352.779ZM302.666 352.779C302.666 361.868 310.035 369.238 319.125 369.238C328.214 369.238 335.583 361.868 335.583 352.779C335.583 343.69 328.214 336.32 319.125 336.32C310.035 336.32 302.666 343.69 302.666 352.779Z" fill="#284D89"/>
<path d="M317.502 363.983C317.502 362.454 316.593 361.114 315.23 360.418C312.451 359.001 310.547 356.114 310.547 352.779C310.547 349.445 312.451 346.558 315.23 345.139C316.593 344.445 317.502 343.103 317.502 341.574C317.502 338.694 314.485 336.725 311.897 337.99C306.43 340.666 302.666 346.282 302.666 352.779C302.666 359.275 306.43 364.893 311.897 367.567C314.485 368.834 317.502 366.863 317.502 363.983Z" fill="#FF4D6B"/>
<path d="M228.023 359.965H197.952V287.799H228.023V359.965Z" stroke="#289DF2" stroke-width="1.504" stroke-miterlimit="10"/>
<path d="M210.983 304.297H202.212V301.705H210.983V304.297Z" fill="#1AE5FF"/>
<path d="M210.983 310.08H202.212V307.488H210.983V310.08Z" fill="#1AE5FF"/>
<path d="M210.983 315.863H202.212V313.271H210.983V315.863Z" fill="#1AE5FF"/>
<path d="M210.983 345.933H202.212V343.341H210.983V345.933Z" fill="#1AE5FF"/>
<path d="M214.992 324.344H202.213V321.752H214.992V324.344Z" fill="#1AE5FF"/>
<path d="M214.992 330.128H202.213V327.536H214.992V330.128Z" fill="white"/>
<path d="M214.992 335.909H202.213V333.317H214.992V335.909Z" fill="white"/>
<path d="M128.291 416.097H90.2026V378.009H128.291V416.097Z" fill="#289DF2"/>
<path d="M108.244 425.117H70.1558V387.029H108.244V425.117Z" stroke="#289DF2" stroke-width="1.504" stroke-miterlimit="10"/>
<path d="M559.29 504.301H543.254V488.264H559.29V504.301Z" stroke="#289DF2" stroke-width="1.504" stroke-miterlimit="10"/>
<path d="M350.807 462.955H364.337L371.856 470.472H450.037L462.065 458.444H504.164" stroke="white" stroke-width="1.504" stroke-miterlimit="10"/>
<path d="M350.807 463.142C350.807 465.322 349.04 467.089 346.86 467.089C344.68 467.089 342.913 465.322 342.913 463.142C342.913 460.962 344.68 459.196 346.86 459.196C349.04 459.196 350.807 460.962 350.807 463.142Z" stroke="white" stroke-width="1.504" stroke-miterlimit="10"/>
<path d="M512.182 458.257C512.182 460.437 510.415 462.204 508.235 462.204C506.055 462.204 504.288 460.437 504.288 458.257C504.288 456.077 506.055 454.31 508.235 454.31C510.415 454.31 512.182 456.077 512.182 458.257Z" stroke="white" stroke-width="1.504" stroke-miterlimit="10"/>
<path d="M561.296 250.712C561.296 253.48 559.052 255.724 556.284 255.724C553.516 255.724 551.272 253.48 551.272 250.712C551.272 247.944 553.516 245.7 556.284 245.7C559.052 245.7 561.296 247.944 561.296 250.712Z" fill="#289DF2"/>
<path d="M98.2202 446.166C98.2202 448.934 95.9762 451.178 93.2095 451.178C90.4415 451.178 88.1975 448.934 88.1975 446.166C88.1975 443.398 90.4415 441.154 93.2095 441.154C95.9762 441.154 98.2202 443.398 98.2202 446.166Z" fill="#FF4D6B"/>
<path d="M121.274 464.709C121.274 469.553 117.348 473.479 112.504 473.479C107.66 473.479 103.733 469.553 103.733 464.709C103.733 459.865 107.66 455.939 112.504 455.939C117.348 455.939 121.274 459.865 121.274 464.709Z" fill="#FF4D6B"/>
<path d="M419.968 502.296H384.885V494.277H419.968V502.296Z" stroke="#289DF2" stroke-width="1.504" stroke-miterlimit="10"/>
<path d="M461.814 517.331H384.886V509.312H461.814V517.331Z" stroke="#289DF2" stroke-width="1.504" stroke-miterlimit="10"/>
<path d="M169.974 501.957L161.471 510.46" stroke="#289DF2" stroke-width="1.504" stroke-miterlimit="10" stroke-linecap="round" stroke-linejoin="round"/>
<path d="M178.149 501.957L169.648 510.46" stroke="#289DF2" stroke-width="1.504" stroke-miterlimit="10" stroke-linecap="round" stroke-linejoin="round"/>
<path d="M186.325 501.957L177.822 510.46" stroke="#289DF2" stroke-width="1.504" stroke-miterlimit="10" stroke-linecap="round" stroke-linejoin="round"/>
<path d="M194.501 501.957L185.998 510.46" stroke="#289DF2" stroke-width="1.504" stroke-miterlimit="10" stroke-linecap="round" stroke-linejoin="round"/>
<path d="M202.676 501.957L194.173 510.46" stroke="#289DF2" stroke-width="1.504" stroke-miterlimit="10" stroke-linecap="round" stroke-linejoin="round"/>
</svg>
