<?xml version="1.0" standalone="no"?>
<!DOCTYPE svg PUBLIC "-//W3C//DTD SVG 20010904//EN"
 "http://www.w3.org/TR/2001/REC-SVG-20010904/DTD/svg10.dtd">
<svg version="1.0" xmlns="http://www.w3.org/2000/svg"
 width="512.000000pt" height="512.000000pt" viewBox="0 0 512.000000 512.000000"
 preserveAspectRatio="xMidYMid meet">
<metadata>
Created by potrace 1.16, written by Peter Selinger 2001-2019
</metadata>
<g transform="translate(0.000000,512.000000) scale(0.100000,-0.100000)"
fill="#fff" stroke="none">
<path d="M2140 4811 c-33 -7 -80 -27 -80 -35 0 -2 17 -2 38 1 31 4 44 0 66
-19 l28 -24 -41 4 c-55 5 -83 -3 -112 -32 -16 -16 -58 -34 -118 -51 -147 -41
-215 -85 -131 -85 16 0 31 -4 34 -8 8 -14 -194 -139 -276 -170 -42 -16 -87
-37 -100 -47 l-23 -17 25 8 c51 15 96 24 124 24 l30 0 -30 -31 c-16 -17 -87
-59 -159 -94 -146 -71 -200 -117 -240 -201 -14 -29 -25 -55 -25 -59 0 -3 21
12 48 32 53 42 93 61 200 93 40 13 75 26 77 30 3 5 -14 2 -38 -5 -23 -7 -71
-14 -105 -17 -63 -4 -64 -4 -40 14 12 10 82 47 153 82 72 35 167 88 212 120
96 65 158 92 245 105 53 7 57 9 23 10 -56 1 -149 -24 -212 -58 l-52 -28 22 29
c33 44 104 95 165 118 30 11 62 30 71 41 9 12 39 27 66 34 l50 14 -55 1 -55 2
40 13 c22 8 64 14 93 14 50 1 52 2 40 21 -17 27 2 40 57 40 56 0 99 -30 145
-102 43 -66 50 -56 20 32 -15 46 -18 50 -19 25 l-1 -30 -24 25 c-14 14 -28 37
-31 52 -6 25 -5 26 32 26 21 0 51 -7 67 -15 15 -8 25 -10 22 -5 -4 6 -1 14 5
18 7 4 22 -4 36 -21 22 -25 24 -33 18 -94 l-7 -66 27 52 c23 45 109 133 129
133 4 0 -6 -21 -21 -47 l-27 -48 59 54 c56 51 85 68 144 86 l23 7 -21 -28
c-11 -16 -24 -45 -27 -64 l-7 -35 34 31 c57 53 111 74 68 27 -21 -23 -22 -25
-4 -18 22 8 138 45 143 45 2 0 -10 -17 -28 -37 l-31 -38 48 -6 c26 -3 39 -7
29 -7 -30 -3 -144 -70 -182 -109 -19 -19 -49 -54 -66 -76 -23 -32 -28 -36 -23
-17 13 44 35 80 88 143 87 104 86 102 58 88 -65 -35 -139 -121 -201 -236 l-32
-60 5 85 5 85 -25 -54 c-41 -91 -53 -157 -55 -302 -2 -76 -4 -136 -6 -135 -8
9 -28 159 -24 184 2 17 -3 63 -12 102 -18 80 -13 135 22 228 28 72 17 65 -18
-12 -42 -92 -51 -162 -34 -276 20 -141 17 -145 -25 -30 -79 221 -173 355 -271
385 -19 6 -13 -5 34 -56 65 -73 107 -134 165 -240 50 -92 54 -114 5 -33 -34
57 -94 128 -101 120 -2 -2 18 -32 44 -67 45 -60 134 -233 148 -289 l6 -25 -18
21 c-10 12 -52 64 -94 115 -82 101 -169 188 -209 209 -24 12 -24 12 -9 -6 8
-10 48 -56 89 -102 40 -45 71 -84 69 -86 -2 -2 -38 17 -81 43 -88 55 -158 80
-243 87 -67 5 -57 -3 40 -31 63 -18 153 -61 105 -50 -48 11 -126 16 -105 7 14
-7 -13 -11 -86 -13 -98 -4 -111 -7 -180 -41 -41 -20 -105 -60 -144 -89 -89
-65 -140 -89 -190 -88 -38 0 -39 1 -15 11 85 38 129 64 210 127 50 38 115 84
145 101 64 36 71 47 18 25 -48 -20 -101 -55 -183 -120 -71 -57 -99 -73 -181
-104 -67 -26 -72 -26 -34 -1 17 11 23 20 15 20 -19 0 -84 -30 -130 -59 l-35
-23 30 7 c29 6 28 5 -21 -45 -32 -33 -64 -55 -85 -59 l-34 -8 41 -11 c23 -7
55 -9 73 -6 37 8 40 -6 12 -51 -27 -44 -71 -85 -100 -92 -43 -11 4 -21 58 -12
25 4 47 6 48 5 2 -1 -4 -12 -13 -24 -24 -34 -74 -55 -128 -54 l-50 1 45 -39
44 -39 -90 31 c-167 59 -304 42 -397 -49 -36 -35 -67 -98 -54 -110 3 -4 6 1 6
10 0 29 75 94 134 116 114 42 248 18 361 -65 135 -100 139 -103 120 -110 -9
-4 -32 1 -51 10 -19 9 -36 16 -38 16 -1 0 1 -24 5 -52 13 -91 11 -95 -22 -45
-73 111 -211 198 -313 198 -64 0 -121 -25 -154 -70 -25 -34 -52 -127 -52 -181
l-1 -35 -15 25 c-14 23 -15 20 -9 -48 13 -152 68 -308 158 -446 92 -140 193
-242 292 -293 67 -35 161 -37 223 -5 l42 22 -19 -50 c-34 -91 -93 -148 -153
-151 -19 -1 -17 -3 10 -12 23 -7 43 -7 67 1 19 5 33 6 29 1 -9 -15 -94 -61
-127 -69 -30 -8 -29 -8 13 -9 25 -1 61 3 79 9 19 5 36 8 38 6 2 -2 -10 -44
-27 -94 -16 -49 -30 -94 -30 -100 0 -5 26 1 58 13 100 40 106 41 98 14 -27
-94 -26 -194 3 -272 8 -21 8 -21 14 -2 3 11 8 42 12 68 4 27 9 46 12 43 3 -3
16 -35 28 -71 29 -82 76 -155 120 -190 l34 -26 -24 50 c-24 47 -32 91 -19 104
4 4 25 -19 47 -51 22 -31 62 -81 88 -110 34 -37 49 -62 49 -81 0 -26 -10 -33
-152 -102 -220 -106 -450 -225 -548 -282 -113 -66 -127 -73 -183 -92 -150 -52
-368 -383 -482 -729 -73 -222 -57 -212 40 25 62 152 163 349 232 454 102 155
145 194 245 220 30 7 101 42 158 76 189 112 592 309 633 309 16 0 3 -23 -96
-176 -125 -192 -207 -331 -248 -419 -30 -62 -30 -67 -14 -85 9 -10 27 -21 41
-24 40 -10 27 -23 -37 -35 -85 -17 -106 -28 -125 -70 -31 -65 -30 -325 3 -533
3 -24 11 -38 20 -38 12 0 14 8 9 33 -14 80 -28 277 -24 343 3 42 12 83 21 97
8 13 57 50 108 82 51 31 173 117 270 190 199 149 219 163 219 142 0 -7 -18
-103 -40 -213 -53 -258 -86 -466 -95 -581 l-8 -93 31 0 c34 0 35 4 47 115 11
98 64 355 87 422 12 34 26 59 31 56 12 -7 3 -259 -13 -348 -6 -39 -6 -63 0
-69 6 -6 10 -19 10 -31 0 -11 13 -48 30 -83 25 -53 33 -62 56 -62 24 0 26 2
20 33 -15 80 -26 258 -20 316 l7 64 23 -58 c27 -66 59 -106 79 -99 19 8 59 72
89 140 l25 59 1 -154 c0 -224 20 -315 65 -297 10 3 15 19 15 48 0 46 37 351
46 381 5 15 14 6 41 -40 19 -32 44 -68 55 -80 l20 -22 -40 -88 c-22 -48 -51
-114 -65 -145 l-26 -58 67 0 68 0 18 110 c17 100 36 154 50 140 3 -3 1 -46 -4
-95 -5 -50 -10 -105 -10 -122 l0 -33 59 0 59 0 64 78 c115 139 190 251 224
335 32 79 33 80 33 42 1 -68 -68 -184 -223 -373 -32 -40 -57 -75 -54 -77 15
-16 205 232 318 415 45 74 84 136 85 138 2 2 26 -31 54 -73 59 -87 59 -75 -6
-215 -37 -80 -56 -108 -125 -177 -87 -87 -100 -123 -22 -57 84 71 88 72 59 23
-30 -53 -31 -59 -6 -59 12 0 25 15 39 47 224 525 342 786 362 798 9 6 35 -15
82 -66 80 -86 76 -65 -6 31 -31 36 -56 70 -55 75 0 11 85 176 246 480 126 237
158 311 213 498 21 73 44 145 50 162 l11 30 35 -55 c44 -69 43 -58 -1 30 -34
68 -48 150 -25 150 17 0 115 -149 212 -320 l93 -165 -1 -100 c-2 -104 -22
-234 -77 -495 l-33 -155 -47 -13 c-26 -7 -51 -21 -56 -30 -5 -9 -18 -60 -30
-113 -12 -53 -27 -104 -34 -112 -8 -11 -43 -20 -102 -28 -49 -6 -112 -20 -139
-30 -50 -19 -70 -16 -96 15 -11 14 -7 18 26 32 21 9 74 24 118 34 45 10 70 19
56 19 -64 2 -230 -55 -230 -78 0 -14 116 -112 190 -161 87 -57 110 -79 110
-105 0 -12 -43 -98 -95 -191 -52 -93 -95 -172 -95 -176 0 -5 13 -8 29 -8 28 0
34 8 97 128 37 70 100 188 140 262 47 88 76 156 84 195 17 85 64 224 109 325
61 135 131 445 131 583 l0 48 118 -62 c64 -34 146 -79 182 -99 36 -20 119 -65
185 -99 99 -51 114 -56 85 -31 -42 37 -177 123 -397 251 -147 85 -163 97 -163
121 0 40 -30 109 -100 233 -81 141 -162 265 -205 310 l-33 36 42 -6 c43 -7
126 9 126 24 0 5 -17 11 -39 15 -21 3 -49 14 -62 24 l-23 19 36 7 c19 3 44 16
56 29 l21 22 -37 -2 c-21 -2 -54 5 -77 15 l-40 19 54 -5 c57 -5 67 10 13 21
-29 6 -82 42 -82 57 0 5 23 13 52 19 81 18 166 69 249 151 169 166 286 413
306 646 11 132 -53 276 -150 341 -103 69 -205 70 -358 4 -109 -46 -119 -49
-95 -22 16 17 15 19 -16 31 -35 14 -88 58 -88 73 0 5 19 7 43 3 23 -3 56 -2
72 3 17 5 23 10 14 10 -19 1 -68 54 -102 109 -49 79 -126 232 -117 232 5 0 42
-30 81 -67 l71 -67 -16 39 c-42 99 -94 173 -211 294 -80 84 -81 94 0 54 l30
-15 -35 38 c-139 154 -187 194 -308 255 l-77 40 43 -4 c39 -2 41 -1 25 11 -55
43 -205 90 -293 93 l-35 1 40 19 c22 10 48 19 58 19 11 0 15 5 11 11 -5 8 -47
10 -142 7 -121 -5 -133 -4 -109 9 36 19 34 33 -5 33 -70 -1 -205 -19 -255 -36
-50 -16 -55 -16 -100 1 -55 21 -154 26 -160 8 -3 -8 -16 -6 -46 7 -52 22 -111
30 -157 21z m329 -60 c11 -7 9 -11 -9 -21 -19 -10 -26 -9 -43 9 l-21 21 29 0
c17 0 36 -4 44 -9z m-127 -32 c11 -6 18 -13 15 -16 -5 -5 -87 34 -87 42 0 5
42 -10 72 -26z m710 -99 l-23 -19 53 5 c82 7 28 -11 -86 -30 -71 -11 -112 -24
-154 -47 l-57 -32 35 37 c46 49 162 106 215 106 l40 -1 -23 -19z m201 -87 c37
-18 67 -34 67 -36 0 -4 -115 27 -215 57 l-50 15 65 -2 c48 -2 82 -11 133 -34z
m-230 -32 c-28 -11 -57 -22 -62 -26 -6 -3 -11 -4 -11 -1 0 11 76 45 100 45 17
0 8 -6 -27 -18z m271 -94 c32 -15 57 -29 54 -32 -2 -3 -30 0 -60 5 -100 19
-275 -26 -325 -83 -17 -20 -17 -20 2 -12 99 39 143 42 283 21 128 -19 223 -65
313 -153 74 -71 97 -110 28 -49 -112 102 -227 149 -366 150 -50 0 -90 2 -88 4
2 2 25 10 52 18 l48 14 -60 -5 c-33 -2 -73 -7 -90 -11 -28 -7 -29 -6 -15 11
14 17 13 18 -15 11 -16 -4 -68 -26 -115 -49 -47 -22 -89 -43 -95 -45 -5 -3 0
6 13 20 31 34 28 39 -13 22 -42 -17 -44 -10 -7 29 15 17 20 26 12 22 -28 -15
45 56 79 77 19 12 59 32 90 45 78 33 190 29 275 -10z m-369 -18 c-28 -18 -70
-48 -94 -68 -42 -34 -168 -171 -204 -221 -15 -21 -14 -19 2 15 28 59 106 160
155 199 54 45 155 106 175 106 8 0 -7 -14 -34 -31z m-132 -11 c-6 -7 -42 -53
-82 -103 -40 -49 -84 -110 -97 -135 -30 -54 -22 -17 12 59 16 36 48 77 95 123
65 62 96 86 72 56z m-304 -138 c-1 -14 -7 2 -15 35 -17 78 -16 116 1 45 8 -30
14 -66 14 -80z m839 90 c23 -10 42 -21 42 -23 0 -3 -134 29 -155 37 -5 3 8 5
30 5 22 0 59 -8 83 -19z m46 -154 c73 -26 202 -104 259 -155 22 -19 66 -73 99
-121 33 -47 74 -97 91 -112 18 -16 26 -28 18 -28 -17 0 -110 94 -166 168 -93
123 -321 231 -486 232 -71 0 -223 -38 -312 -78 -37 -17 -67 -32 -67 -35 0 -2
30 7 68 19 92 31 211 54 274 54 62 -1 49 -13 -27 -26 l-50 -8 65 -7 c36 -4 80
-13 98 -20 32 -13 29 -14 -55 -14 -48 0 -97 -6 -108 -12 -19 -11 -18 -12 10
-19 44 -10 97 -39 120 -64 l20 -23 -30 15 c-44 22 -89 30 -168 30 -94 -1 -196
-37 -332 -117 -140 -83 -174 -94 -212 -70 -27 18 -28 18 -13 -1 37 -47 69 -45
174 11 217 118 411 149 532 87 42 -22 124 -89 124 -101 0 -5 -21 2 -47 14
-124 59 -243 57 -392 -6 -259 -110 -276 -112 -430 -40 -190 88 -369 130 -489
115 -61 -7 -187 -42 -179 -50 2 -2 17 0 32 6 15 6 61 15 102 21 128 18 254 -9
500 -106 76 -30 143 -55 148 -55 6 0 16 -4 23 -9 11 -7 10 -16 -7 -49 -12 -23
-21 -50 -21 -61 0 -30 -17 -34 -24 -6 -10 41 -77 106 -133 131 -63 28 -196 64
-232 63 -14 0 20 -13 77 -30 201 -57 270 -116 260 -219 -4 -46 -24 -49 -32 -5
-4 19 -21 51 -38 71 -37 42 -49 38 -17 -5 46 -62 14 -151 -54 -151 l-29 0 31
35 c17 20 31 43 31 53 -1 12 -5 10 -15 -9 -15 -27 -69 -59 -102 -59 -10 0 -74
11 -143 25 -152 30 -228 31 -312 5 -66 -20 -142 -75 -153 -109 -3 -12 -22 -23
-50 -30 -64 -16 -63 -16 -54 41 11 66 3 75 -13 15 -13 -51 -29 -60 -93 -50
-75 11 -78 16 -44 75 17 28 42 67 56 87 17 25 9 19 -26 -18 -28 -30 -51 -50
-51 -45 0 14 55 101 98 153 29 35 31 41 13 31 l-23 -12 18 32 c11 18 37 46 58
61 45 33 37 39 -11 9 -18 -11 -45 -38 -60 -59 -16 -22 -32 -40 -37 -41 -5 0
-15 -8 -23 -17 -10 -14 -10 -8 2 22 9 22 30 58 48 80 l32 40 -50 -38 c-54 -40
-144 -91 -151 -84 -11 10 182 167 276 225 44 28 49 33 25 28 -16 -4 -56 -19
-88 -35 -75 -37 -49 -6 39 46 35 20 62 38 60 40 -1 2 -22 -4 -46 -12 -24 -8
-45 -13 -47 -11 -4 4 38 41 77 68 24 16 23 16 -23 3 -89 -26 -177 -76 -243
-137 -55 -52 -63 -57 -54 -32 25 64 73 142 96 154 39 21 21 21 -39 1 l-57 -20
27 36 c25 33 30 35 71 30 23 -2 59 -1 79 3 l36 9 -44 -45 -43 -44 31 9 c44 13
59 22 174 108 237 178 395 196 655 72 96 -46 191 -131 240 -217 l30 -52 24 51
c29 60 129 158 199 193 56 29 174 68 321 107 124 34 202 32 304 -5z m109 -166
c26 -16 47 -32 47 -35 0 -7 -2 -5 -69 37 -25 15 -40 28 -35 28 6 0 31 -13 57
-30z m-21 -41 c45 -23 133 -101 150 -133 6 -12 -17 4 -51 34 -34 30 -83 70
-108 88 -52 37 -49 41 9 11z m59 -103 c24 -18 53 -49 63 -67 l20 -34 -40 32
c-53 42 -110 103 -97 103 5 0 30 -15 54 -34z m-2120 -32 c-23 -20 -53 -58 -67
-85 -48 -96 -128 -160 -181 -146 -13 3 -11 5 6 6 40 2 108 48 123 83 38 93 65
134 104 155 57 33 63 28 15 -13z m2126 -38 c29 -20 133 -163 133 -184 0 -13
-82 74 -97 103 -8 17 -31 47 -51 68 -42 43 -36 47 15 13z m-304 -15 c23 -11
56 -32 72 -46 l30 -26 -30 15 c-50 23 -151 39 -223 34 -57 -4 -85 -14 -187
-66 -66 -33 -129 -68 -140 -77 -11 -8 30 9 91 39 92 45 205 86 240 86 4 0 -19
-16 -52 -36 -94 -56 -113 -83 -29 -41 39 20 91 38 117 42 49 7 133 -7 178 -31
23 -12 22 -12 -20 -8 l-45 4 40 -13 c136 -46 257 -175 280 -300 6 -30 13 -39
39 -46 17 -5 24 -10 15 -10 -31 -2 -79 21 -79 37 0 10 -5 24 -10 32 -8 11 -9
8 -4 -12 7 -33 8 -33 -104 -10 -45 9 -81 22 -80 27 6 19 -106 65 -192 78 -88
15 -88 14 -20 40 8 3 -3 6 -25 6 -21 1 -88 -13 -149 -30 -136 -39 -219 -38
-262 1 -22 22 -25 31 -21 70 2 25 8 54 12 65 6 16 3 15 -14 -5 -34 -40 -46
-93 -33 -139 17 -53 16 -55 -17 -32 -55 39 -63 119 -21 202 17 33 27 39 92 59
39 12 111 39 158 61 117 52 149 59 258 54 67 -2 104 -9 135 -24z m547 -113
c29 -40 59 -79 68 -85 9 -7 13 -16 9 -19 -10 -11 -83 14 -98 33 -13 15 -12 15
9 4 40 -22 38 -2 -6 42 -39 40 -55 66 -32 52 7 -4 7 3 0 19 -5 14 -8 26 -6 26
3 0 28 -33 56 -72z m-119 -124 c34 -50 69 -122 69 -144 0 -8 -14 10 -31 40
-16 30 -58 91 -92 135 l-61 80 42 -34 c23 -18 56 -53 73 -77z m-2306 27 c-39
-64 -95 -121 -116 -121 -23 0 -94 28 -88 35 3 2 21 -1 41 -7 46 -14 67 -2 134
80 27 33 50 58 52 57 2 -2 -8 -22 -23 -44z m2994 -2 c99 -49 141 -121 141
-240 0 -123 -79 -369 -164 -513 -51 -85 -172 -210 -249 -255 -77 -45 -148 -53
-182 -21 -32 30 -48 75 -31 89 9 8 18 6 32 -4 21 -16 64 -20 64 -6 0 6 -4 13
-10 16 -16 10 -12 55 4 55 8 0 17 -4 20 -9 13 -20 62 -19 106 2 63 29 242 213
276 282 30 62 36 163 14 230 -28 87 -99 154 -182 175 -94 24 -163 -22 -236
-159 l-40 -73 -4 128 c-5 146 -7 139 80 228 76 78 136 106 228 106 59 0 81 -5
133 -31z m-379 -54 c0 -3 -19 -18 -42 -35 -39 -28 -78 -39 -78 -22 0 5 73 44
118 61 1 1 2 -1 2 -4z m-2965 -139 c29 -20 76 -63 104 -96 46 -53 51 -63 51
-107 l0 -48 -36 65 c-75 133 -170 203 -251 181 -59 -16 -80 -46 -119 -172 -47
-149 -49 -207 -9 -274 l30 -50 6 77 c8 93 34 152 93 206 41 38 136 82 176 82
15 0 20 -7 20 -30 0 -26 -7 -33 -58 -59 -83 -42 -122 -89 -122 -147 0 -43 4
-49 62 -104 63 -60 79 -68 59 -32 -14 26 -14 87 -1 113 9 16 110 77 110 65 0
-2 -7 -20 -15 -39 -32 -76 -13 -158 51 -229 19 -22 34 -41 32 -43 -6 -5 -162
26 -203 41 -58 20 -110 67 -139 126 -25 50 -26 51 -26 20 0 -74 56 -150 168
-227 88 -59 129 -66 182 -31 40 26 40 26 40 4 0 -27 -27 -58 -52 -58 -11 0
-16 -4 -13 -10 10 -16 40 -11 69 11 38 30 68 81 101 173 34 93 42 88 21 -14
-17 -80 -79 -200 -127 -246 -22 -21 -38 -27 -72 -27 -69 0 -132 37 -232 137
-144 146 -224 300 -259 504 -14 85 -14 96 0 132 19 47 98 122 146 138 18 6 62
10 96 8 54 -3 72 -10 117 -40z m1625 -28 c8 -3 25 -1 38 3 l24 9 -24 -29 c-23
-29 -25 -29 -136 -33 -84 -2 -117 0 -124 10 -13 15 -14 14 45 36 27 10 61 29
75 41 l27 24 30 -28 c17 -16 37 -31 45 -33z m640 33 c33 -5 3 -9 -115 -13
-149 -5 -167 -8 -263 -41 -64 -21 -114 -45 -132 -62 l-29 -27 -73 15 c-40 8
-63 16 -51 16 12 1 44 -4 71 -10 l49 -12 45 46 c39 38 53 46 99 52 30 3 74 13
99 20 25 8 56 16 70 18 42 7 182 6 230 -2z m-1859 -83 c11 -9 14 -20 9 -38
l-8 -25 -1 27 c-1 19 -11 32 -36 48 -19 12 -35 24 -35 26 0 6 51 -21 71 -38z
m2284 15 c-16 -15 -29 -33 -27 -40 2 -10 -3 -8 -15 4 -18 17 -18 18 8 30 15 6
30 16 33 22 4 6 13 11 19 11 7 0 -1 -13 -18 -27z m-1516 -7 c62 -17 125 -56
142 -88 7 -14 -2 -8 -27 16 -61 59 -219 93 -382 82 -121 -8 -153 -22 -191 -83
l-31 -48 0 43 c0 23 -4 42 -9 42 -18 0 -70 -70 -80 -107 -23 -81 -11 -107 48
-101 53 5 53 -10 2 -61 -30 -30 -34 -37 -17 -33 11 3 32 13 46 22 25 18 25 18
24 -9 0 -15 -4 -33 -8 -39 -12 -19 -1 -14 20 10 12 14 14 18 4 13 -8 -4 -5 3
6 16 12 13 26 33 32 44 6 11 31 28 56 38 l45 19 68 -27 c62 -25 74 -27 143
-20 73 8 181 10 219 4 22 -4 20 -12 -29 -111 -19 -38 -53 -83 -86 -114 -30
-28 -54 -57 -54 -65 1 -8 22 9 47 36 31 34 40 40 28 20 -27 -45 -55 -74 -107
-110 -27 -17 -45 -35 -40 -40 4 -4 -1 -5 -10 -2 -9 3 -18 1 -21 -6 -2 -8 -35
-12 -103 -12 -80 0 -108 5 -147 22 -93 43 -141 99 -178 211 -12 35 -23 62 -25
59 -6 -6 26 -107 48 -152 l19 -40 -20 25 c-40 49 -56 117 -53 225 3 159 41
253 115 292 76 39 166 53 312 48 79 -2 163 -11 194 -19z m1204 -2 c152 -35
201 -142 167 -364 -11 -66 -49 -184 -57 -176 -3 2 -24 -17 -48 -44 -24 -27
-46 -46 -49 -43 -3 4 -6 1 -6 -6 0 -7 -4 -9 -10 -6 -5 3 -10 2 -10 -4 0 -6 -7
-7 -17 -4 -10 4 -14 2 -10 -4 4 -6 -2 -11 -16 -12 -12 0 -51 -3 -87 -5 -67 -3
-97 2 -190 38 -137 51 -293 289 -289 440 2 50 2 49 10 -18 12 -108 69 -216
170 -321 45 -47 84 -83 87 -80 3 2 -27 47 -67 98 -39 52 -87 125 -106 163
l-35 69 23 17 c28 22 67 22 154 2 79 -19 164 -14 213 11 35 18 90 16 116 -6
20 -17 17 -74 -7 -120 -30 -59 -17 -58 15 1 26 48 48 62 61 40 12 -20 26 -10
15 11 -24 44 1 28 46 -30 26 -34 49 -59 52 -56 2 2 -21 43 -52 91 -31 48 -56
91 -56 95 0 5 34 9 76 9 l76 0 -7 38 c-9 47 -42 108 -70 126 -32 21 -123 46
-166 46 l-37 0 29 -52 c43 -79 35 -89 -23 -31 -29 28 -63 56 -75 62 -29 15
-145 14 -195 -1 -55 -16 -128 -85 -166 -155 -25 -46 -32 -53 -32 -33 -1 107
71 181 208 214 81 20 276 20 365 0z m-1846 0 c-3 -3 -12 -4 -19 -1 -8 3 -5 6
6 6 11 1 17 -2 13 -5z m-60 -10 c-3 -3 -12 -4 -19 -1 -8 3 -5 6 6 6 11 1 17
-2 13 -5z m646 -18 c18 -8 51 -35 75 -60 59 -64 74 -61 46 9 -7 20 -7 20 14 2
30 -27 52 -79 52 -127 l0 -41 -47 62 c-74 97 -112 122 -186 127 -51 3 -77 -2
-145 -27 -46 -17 -86 -31 -89 -31 -15 0 37 45 82 71 57 33 142 39 198 15z
m430 -3 c-7 -2 -21 -2 -30 0 -10 3 -4 5 12 5 17 0 24 -2 18 -5z m270 -30 c-21
-21 -40 -37 -43 -35 -5 4 66 72 75 72 4 0 -11 -17 -32 -37z m607 -1 c45 -40
47 -62 7 -62 -17 0 -27 13 -44 50 -12 28 -18 50 -14 50 5 0 28 -17 51 -38z
m-1885 18 c4 -6 -10 -10 -34 -10 -22 0 -43 5 -46 10 -4 6 10 10 34 10 22 0 43
-4 46 -10z m920 0 c-30 -8 -30 -8 8 -9 24 -1 40 -7 44 -16 7 -21 6 -21 -51
-30 -48 -7 -49 -6 -44 19 5 22 2 26 -21 27 -22 1 -20 3 9 9 19 4 46 7 60 8 22
0 22 -1 -5 -8z m1170 0 c3 -5 0 -10 -9 -10 -8 0 -16 -6 -18 -12 -3 -9 -9 -8
-21 4 -12 12 -14 18 -4 21 21 9 46 7 52 -3z m42 -42 c-3 -8 -6 -5 -6 6 -1 11
2 17 5 13 3 -3 4 -12 1 -19z m-2269 -50 c-3 -21 -4 -21 -18 -3 -9 11 -10 16
-2 11 8 -5 12 2 13 26 1 23 3 26 6 11 2 -13 3 -33 1 -45z m-87 6 c0 -11 -37
-18 -55 -11 -9 4 -12 15 -9 31 l5 26 30 -18 c16 -11 30 -23 29 -28z m1963 -32
c31 -23 56 -45 56 -47 0 -3 -9 -5 -20 -5 -11 0 -50 29 -87 66 -72 70 -52 65
51 -14z m834 62 c62 -20 116 -64 142 -115 25 -47 26 -128 4 -175 -19 -40 -79
-91 -144 -124 -25 -13 -59 -33 -76 -46 -18 -14 -45 -24 -63 -24 -18 0 -45 -7
-61 -15 -16 -8 -35 -12 -44 -9 -18 7 37 57 106 97 56 33 90 95 96 179 6 84 -4
121 -43 159 -32 32 -44 66 -28 82 11 12 59 8 111 -9z m-2590 -1 c-10 -2 -26
-2 -35 0 -10 3 -2 5 17 5 19 0 27 -2 18 -5z m550 1 c30 -8 29 -34 -2 -34 -35
0 -56 10 -56 26 0 15 21 18 58 8z m1047 -14 c0 -18 -43 -25 -65 -10 -13 9 -13
11 0 20 22 15 65 8 65 -10z m508 13 c-7 -2 -21 -2 -30 0 -10 3 -4 5 12 5 17 0
24 -2 18 -5z m167 -8 c19 -22 7 -41 -13 -21 -18 19 -22 36 -8 36 5 0 14 -7 21
-15z m-1914 -27 c-22 -31 -96 -88 -114 -88 -20 0 -1 22 61 72 55 43 76 49 53
16z m464 -22 c0 -26 -6 -18 -14 19 -5 22 -4 26 4 15 5 -8 10 -24 10 -34z m636
-47 c32 -33 30 -35 -20 -14 -40 17 -57 55 -35 81 12 14 14 13 21 -11 4 -16 19
-41 34 -56z m-766 11 c0 -4 -19 -12 -42 -19 -24 -7 -51 -15 -60 -17 -12 -4 -8
5 12 25 17 16 30 37 30 46 0 13 5 12 30 -7 17 -12 30 -25 30 -28z m-879 12
c-5 -15 -18 -47 -30 -70 -27 -53 -42 -92 -36 -92 3 0 19 21 35 47 37 57 39 34
5 -49 -14 -34 -22 -64 -19 -67 3 -3 9 1 14 9 5 8 16 24 24 35 15 19 16 19 6
-7 -5 -15 -18 -44 -28 -65 -11 -21 -22 -51 -26 -66 -4 -16 -12 -27 -19 -25
-17 6 -46 95 -47 141 0 23 -4 36 -10 32 -5 -3 -10 -2 -10 4 0 5 5 13 10 16 6
3 17 19 25 35 l15 30 -29 -6 c-32 -7 -52 11 -23 20 31 10 88 56 69 56 -23 0
-22 37 1 43 9 3 31 5 49 6 30 1 31 0 24 -27z m150 -128 c12 -133 31 -190 83
-262 44 -60 44 -60 25 -78 -30 -27 -122 -154 -116 -160 2 -3 33 29 68 71 35
41 67 75 72 75 4 0 7 -3 5 -7 -2 -5 -10 -20 -17 -35 -11 -22 -12 -30 -1 -43
10 -13 6 -22 -27 -58 -21 -23 -54 -64 -72 -92 l-33 -50 34 35 c18 20 49 55 68
79 26 32 39 41 53 35 16 -6 14 -11 -19 -45 -44 -45 -39 -50 13 -14 56 38 53
20 -9 -43 -62 -64 -84 -99 -122 -190 -15 -34 -41 -86 -59 -115 -18 -28 -43
-74 -56 -102 -20 -45 -22 -47 -16 -15 3 19 27 82 54 140 27 58 58 125 69 150
l19 45 -71 -35 c-96 -47 -119 -64 -151 -111 -16 -21 -29 -38 -31 -36 -2 2 12
41 30 88 19 46 38 98 42 114 l7 30 -41 -37 c-49 -44 -68 -51 -30 -10 38 40 81
117 118 212 18 47 46 114 61 149 33 73 17 67 -37 -14 -42 -61 -43 -54 -4 37
35 82 36 85 13 67 -12 -10 -10 -4 5 18 25 35 29 51 8 34 -12 -10 -12 -2 -1 51
13 62 13 62 -6 38 l-19 -25 10 35 c5 19 7 71 3 116 -3 45 -3 90 1 100 6 16 10
14 38 -13 28 -29 31 -38 39 -129z m459 147 c0 -19 53 -71 73 -72 l22 -2 -22
-4 c-41 -8 -111 42 -99 72 6 16 26 21 26 6z m654 3 c17 -7 22 -34 6 -34 -19 0
-40 -58 -33 -91 6 -29 4 -31 -13 -23 -10 5 -46 9 -80 9 l-60 0 18 31 c16 27
16 33 3 50 -21 27 -18 43 8 54 25 10 128 13 151 4z m1070 -57 c4 -32 2 -46 -5
-42 -10 7 -8 -12 7 -95 l4 -25 -20 24 c-24 28 -24 23 -5 -49 8 -30 15 -57 15
-59 0 -2 -9 7 -20 20 -23 29 -24 27 -5 -33 8 -27 12 -48 9 -48 -3 0 -19 7 -35
16 -38 19 -47 12 -25 -18 35 -48 76 -112 73 -114 -2 -2 -21 3 -42 11 -64 23
-73 18 -34 -18 19 -17 44 -43 55 -57 19 -24 19 -24 -18 3 -21 15 -53 38 -71
52 -19 14 -37 25 -41 25 -3 0 24 -35 61 -78 72 -83 140 -195 178 -290 25 -62
44 -168 26 -142 -6 8 -11 23 -11 33 0 69 -122 292 -193 354 -42 37 -96 67
-104 59 -3 -3 14 -31 38 -63 78 -101 76 -98 47 -79 -14 9 -39 21 -55 25 -30 9
-29 8 14 -36 107 -106 188 -399 154 -548 -5 -19 -9 15 -13 95 -6 135 -18 180
-82 314 -62 127 -131 196 -198 196 -18 0 -15 -4 19 -21 45 -22 93 -75 138
-153 l28 -48 -31 16 c-47 24 -49 20 -7 -21 38 -37 57 -73 69 -128 5 -24 1 -20
-20 18 -14 27 -27 47 -29 45 -2 -2 2 -26 10 -53 23 -76 16 -97 -9 -28 -27 72
-53 109 -149 210 -62 66 -68 75 -65 109 2 31 10 43 48 69 48 34 119 131 171
232 23 46 37 95 54 202 32 189 54 228 69 118z m156 54 c0 -5 -7 -12 -16 -15
-22 -9 -24 -8 -24 9 0 8 9 15 20 15 11 0 20 -4 20 -9z m-631 -14 c13 -17 -8
-40 -52 -56 -35 -13 -73 -14 -41 -1 12 4 32 22 45 39 27 34 32 36 48 18z
m-846 -49 c-13 -97 -84 -239 -162 -322 -41 -44 -109 -96 -124 -96 -6 0 9 13
34 28 82 53 164 162 212 284 15 36 27 78 27 91 0 24 9 57 15 57 2 0 1 -19 -2
-42z m1518 10 c27 -13 48 -27 49 -32 0 -9 -39 -3 -73 10 -14 5 -10 -5 15 -40
28 -41 33 -56 33 -108 0 -48 -4 -62 -20 -74 -19 -14 -20 -13 -27 23 -3 21 -16
60 -27 86 -26 61 -27 80 -1 47 27 -35 25 -13 -5 39 -44 76 -29 88 56 49z
m-2208 -5 c-13 -2 -33 -2 -45 0 -13 2 -3 4 22 4 25 0 35 -2 23 -4z m424 -19
c-3 -3 -12 -4 -19 -1 -8 3 -5 6 6 6 11 1 17 -2 13 -5z m445 -78 c24 -13 32
-13 58 0 59 30 112 -16 141 -119 5 -21 13 -45 16 -54 5 -13 0 -15 -30 -9 -40
7 -98 -12 -133 -45 -21 -19 -21 -19 -40 2 -41 46 -128 66 -191 45 -16 -5 -23
-3 -23 6 0 13 66 158 72 158 2 0 21 7 43 15 50 18 54 18 87 1z m1299 -96 c9
-25 9 -35 0 -38 -6 -2 -11 -26 -12 -55 l-1 -52 -18 40 c-9 22 -21 53 -24 69
-6 25 -5 28 7 18 12 -11 13 -6 6 30 -4 24 -8 50 -8 58 -1 22 36 -28 50 -70z
m-1357 -115 c22 -8 50 -28 64 -45 l24 -30 19 24 c27 34 94 59 140 51 73 -13
144 -125 119 -190 -6 -15 -20 -41 -31 -56 -18 -26 -18 -29 -4 -29 9 0 33 16
52 35 34 34 35 38 30 90 -7 66 -5 66 101 -28 184 -162 234 -276 162 -375 -16
-23 -44 -49 -61 -57 -35 -19 -34 -30 3 -16 41 15 86 60 93 91 4 17 11 30 15
30 5 0 22 -21 37 -47 25 -44 28 -57 28 -145 0 -81 -3 -101 -20 -124 -25 -33
-68 -64 -60 -43 4 11 -5 13 -42 11 -29 -2 -111 10 -208 32 -190 42 -330 60
-394 52 -25 -4 -140 -25 -256 -48 -229 -45 -263 -45 -313 -3 -49 41 -67 149
-38 220 18 43 27 44 50 5 9 -17 41 -44 69 -60 66 -38 85 -39 26 -2 -94 60
-148 154 -134 231 13 69 80 166 181 261 l59 55 7 -55 c5 -47 12 -60 44 -88 20
-17 39 -30 42 -28 2 3 -8 22 -22 43 -49 72 -27 166 50 213 65 41 107 47 168
25z m1002 -46 c-8 -11 -25 -28 -38 -36 -15 -11 -11 -4 11 20 39 41 49 47 27
16z m288 -138 c39 -74 44 -104 8 -54 -11 15 -43 69 -71 118 l-51 90 38 -41
c20 -23 54 -74 76 -113z m13 47 c-2 -13 -4 -5 -4 17 -1 22 1 32 4 23 2 -10 2
-28 0 -40z m-2037 -13 c19 -10 58 -24 85 -31 l50 -12 -40 -2 c-22 -1 -31 -4
-20 -7 47 -10 47 -13 6 -60 -23 -25 -39 -48 -37 -50 2 -3 37 20 78 50 54 40
87 57 126 64 l53 10 -18 -21 c-10 -11 -34 -40 -55 -63 -55 -61 -79 -116 -88
-202 -5 -42 -20 -103 -34 -136 -41 -95 -37 -184 14 -319 22 -58 40 -110 40
-113 0 -12 -78 123 -117 202 -33 66 -34 73 -27 135 9 77 9 158 -1 260 -5 57
-2 97 13 168 l20 93 -57 29 c-32 15 -64 36 -72 46 -11 15 -9 14 16 -3 17 -11
46 -28 65 -38z m1386 -40 c79 -23 123 -88 150 -219 8 -39 27 -105 41 -146 22
-62 27 -92 26 -175 0 -109 -15 -166 -62 -242 l-28 -45 -6 47 c-5 35 -2 58 12
89 50 114 54 252 9 341 -14 28 -29 68 -33 90 -13 71 -55 143 -133 227 -42 45
-65 74 -51 65 14 -10 48 -24 75 -32z m289 36 c-6 -5 -23 -12 -40 -15 -28 -6
-28 -5 5 8 43 18 46 18 35 7z m-137 -38 c-10 -2 -26 -2 -35 0 -10 3 -2 5 17 5
19 0 27 -2 18 -5z m492 -183 c35 -54 70 -156 70 -198 -1 -17 -9 -2 -24 43 -12
39 -37 98 -54 132 -18 34 -32 65 -32 68 0 13 10 1 40 -45z m140 5 c13 -14 21
-25 18 -25 -2 0 -15 11 -28 25 -13 14 -21 25 -18 25 2 0 15 -11 28 -25z
m-2270 -55 c-12 -23 -20 -44 -17 -46 2 -2 16 5 30 17 33 25 35 14 5 -19 l-23
-25 24 13 c19 10 25 10 32 -1 8 -14 -8 -51 -53 -117 -45 -65 -106 -202 -128
-284 l-19 -73 0 82 c-1 53 6 102 18 142 10 34 16 61 13 61 -3 0 -21 -12 -40
-27 -20 -15 -33 -20 -30 -12 40 94 125 269 142 292 19 26 55 50 64 42 2 -2 -6
-22 -18 -45z m1842 -145 c43 -65 64 -130 72 -220 5 -59 5 -58 -19 32 -23 86
-70 192 -112 253 -17 24 -17 25 1 10 11 -8 37 -42 58 -75z m-2033 33 c-24 -48
-58 -84 -100 -108 l-44 -24 32 41 c32 40 108 113 118 113 3 0 0 -10 -6 -22z
m232 -76 c-16 -20 -39 -46 -52 -57 -20 -18 -5 7 56 91 5 7 13 10 17 8 5 -3 -5
-22 -21 -42z m2064 -95 c13 -120 -17 -207 -120 -352 -77 -109 -83 -114 -77
-73 l4 33 -26 -35 c-15 -19 -25 -39 -22 -45 2 -6 -25 -52 -61 -101 -146 -202
-265 -389 -387 -610 -46 -83 -57 -109 -36 -84 46 53 251 363 311 469 l54 94
24 -54 c51 -113 40 -191 -57 -384 -36 -71 -93 -195 -127 -275 -80 -186 -87
-200 -95 -200 -3 0 -25 34 -49 76 -78 136 -180 248 -353 388 -53 42 -82 44
-107 7 -15 -24 -15 -24 8 -12 12 7 25 10 28 7 5 -4 -121 -66 -135 -66 -16 0
121 111 187 152 42 26 123 88 181 137 l105 89 5 -45 5 -45 141 115 c154 126
238 212 316 327 66 96 90 123 98 110 8 -13 68 58 115 136 39 64 61 170 51 248
-4 28 -8 71 -11 96 l-5 45 14 -42 c8 -23 17 -70 21 -106z m-1857 55 c0 -43 5
-97 11 -121 6 -27 6 -53 0 -68 -5 -13 -9 -41 -10 -61 l0 -37 -21 55 c-26 69
-28 174 -5 253 10 31 19 57 21 57 1 0 3 -35 4 -78z m-211 -36 c-74 -96 -88
-215 -42 -345 15 -40 24 -75 22 -78 -7 -6 -63 115 -77 167 -15 55 -6 129 22
184 19 39 98 130 106 122 2 -2 -12 -24 -31 -50z m1813 -60 c30 -118 23 -125
-10 -11 -34 115 -33 112 -20 99 5 -5 19 -45 30 -88z m-1810 -32 c-20 -122 -7
-182 81 -361 65 -132 93 -155 34 -28 -25 54 -44 100 -41 102 2 2 18 -18 35
-45 57 -89 140 -157 356 -290 28 -17 70 -52 95 -78 l45 -46 -50 35 c-27 19
-91 55 -141 80 -50 25 -105 58 -122 72 -35 29 -42 24 -15 -9 10 -12 -8 4 -40
34 -31 30 -57 51 -57 47 0 -4 9 -27 21 -50 l21 -42 -42 40 c-85 81 -162 207
-176 290 l-7 40 -10 -35 -10 -35 -14 45 c-20 62 -11 180 18 248 12 29 23 51
25 49 2 -2 -1 -30 -6 -63z m1255 -97 c77 -19 166 -38 198 -42 104 -13 60 -62
-47 -52 -47 4 -54 3 -31 -4 17 -5 57 -9 90 -7 50 1 61 -1 63 -16 2 -9 -2 -23
-8 -31 -7 -8 -9 -26 -6 -40 4 -14 0 -41 -10 -62 l-16 -38 -10 28 -10 28 -30
-58 c-40 -77 -44 -80 -41 -30 l3 42 -13 -36 c-19 -49 -81 -151 -108 -175 l-22
-19 7 30 c4 17 9 50 11 75 l5 45 -13 -45 c-8 -25 -20 -66 -28 -92 -14 -51 -34
-67 -25 -20 2 15 8 59 11 97 l6 70 -21 -41 c-11 -22 -34 -54 -50 -69 l-30 -29
-1 60 c0 32 -4 68 -8 79 -7 17 -9 14 -15 -15 -4 -19 -13 -48 -20 -65 l-13 -30
-22 65 c-12 36 -28 76 -36 90 -14 24 -14 24 -8 -12 3 -20 2 -72 -3 -115 l-8
-78 -12 78 c-7 43 -22 106 -33 140 -22 70 -45 197 -36 205 3 3 5 -3 6 -14 0
-10 9 -39 20 -64 l19 -45 -3 57 c-4 66 4 69 13 5 l6 -42 11 35 c6 19 16 56 23
83 l13 47 46 1 c45 1 45 1 16 11 -16 6 -109 11 -205 11 -149 0 -195 -4 -309
-27 -140 -27 -211 -33 -211 -16 0 6 12 10 26 10 14 0 76 12 137 26 207 48 253
53 427 49 148 -3 180 -7 305 -38z m-512 -44 c4 -3 1 -13 -6 -22 -11 -14 -10
-14 6 -2 31 24 60 -13 130 -169 18 -38 26 -48 26 -32 1 12 6 22 11 22 6 0 10
-32 10 -77 -1 -74 -2 -76 -14 -48 -8 17 -31 46 -51 65 l-38 35 26 -36 c23 -31
58 -109 57 -128 -1 -3 -15 10 -31 29 l-31 35 17 -35 c10 -19 28 -49 41 -66 26
-34 68 -123 61 -130 -2 -3 -12 8 -22 23 -10 15 -40 51 -65 78 -26 28 -55 61
-64 75 l-18 25 7 -25 c4 -14 14 -36 23 -50 33 -53 -17 1 -58 62 -45 67 -50 63
-20 -14 11 -28 18 -53 16 -55 -8 -9 -57 45 -76 82 -17 35 -19 37 -20 15 0 -14
11 -49 25 -78 20 -43 21 -51 7 -43 -24 13 -57 50 -75 86 l-16 30 -1 -32 c0
-17 5 -44 10 -59 6 -15 9 -28 7 -30 -9 -9 -72 94 -88 145 -10 31 -18 49 -18
41 -1 -16 11 -71 24 -109 12 -38 -12 -16 -45 42 -31 54 -37 97 -20 141 5 14 8
26 5 26 -11 0 -28 -48 -34 -94 l-7 -51 -18 50 c-10 28 -26 65 -35 83 l-16 33
-3 -35 c-3 -32 -5 -35 -22 -26 -29 16 -69 90 -80 150 -6 29 -8 55 -5 58 2 2
18 -7 35 -22 42 -34 84 -34 224 3 149 40 214 49 229 34z m998 -240 c-21 -40
-112 -115 -219 -182 -62 -39 -116 -71 -120 -71 -13 0 65 61 179 140 63 44 126
91 139 105 28 29 34 32 21 8z m228 -70 c-39 -86 -72 -138 -50 -81 14 38 81
168 86 168 2 0 -14 -39 -36 -87z m-239 24 c0 -2 -10 -12 -22 -23 l-23 -19 19
23 c18 21 26 27 26 19z m-1596 -187 c7 -14 19 -35 26 -46 12 -19 9 -44 -18
-185 -18 -90 -32 -174 -32 -187 0 -16 -14 -32 -47 -55 -26 -17 -110 -82 -186
-143 l-140 -112 -66 30 c-36 17 -67 31 -69 33 -6 5 49 106 115 215 64 103 302
460 314 470 3 3 10 13 16 23 8 16 12 8 23 -42 7 -34 17 -61 21 -61 9 0 13 46
11 105 -2 30 -2 30 9 5 6 -14 16 -36 23 -50z m1037 -9 c-7 -11 -46 -44 -89
-72 -42 -29 -97 -68 -122 -87 l-45 -35 45 47 c25 27 80 73 122 103 43 30 80
59 84 64 11 19 16 1 5 -20z m214 5 c-17 -26 -121 -94 -107 -71 6 13 109 93
120 95 1 0 -5 -11 -13 -24z m-1195 -35 c-1 -10 -6 -7 -15 9 -19 33 -18 50 0
26 8 -11 15 -27 15 -35z m116 -56 c9 -23 18 -106 25 -247 16 -323 28 -325 26
-5 -1 152 -1 277 0 277 1 0 23 -42 49 -92 63 -126 106 -186 171 -240 30 -25
31 -27 13 -33 -42 -13 -117 -85 -170 -161 l-54 -79 85 76 c152 136 171 146
205 108 18 -20 18 -21 -1 -31 -61 -33 -125 -134 -245 -385 -40 -84 -77 -153
-81 -153 -14 0 -58 94 -89 190 -38 118 -53 232 -45 350 12 161 68 460 87 460
5 0 16 -16 24 -35z m420 -59 c24 -20 55 -59 69 -86 34 -67 32 -84 -3 -29 -16
24 -56 68 -91 98 -34 29 -67 63 -73 74 l-11 21 32 -21 c18 -11 52 -37 77 -57z
m-243 5 c21 -20 54 -66 73 -103 48 -90 91 -137 184 -203 44 -31 80 -59 80 -62
0 -7 -33 -32 -43 -33 -4 0 -7 6 -5 13 3 14 -44 58 -108 99 -45 29 -226 271
-248 332 -6 17 -4 17 11 5 10 -7 35 -29 56 -48z m331 -66 c29 -60 17 -60 -19
-1 -19 32 -35 61 -35 64 0 13 40 -33 54 -63z m-78 -67 c21 -41 12 -34 -26 20
-24 34 -27 41 -11 27 13 -11 29 -32 37 -47z m192 -308 c12 -7 -1 -10 -48 -10
-36 -1 -100 -7 -142 -14 -43 -7 -78 -9 -78 -5 0 11 37 30 75 40 37 10 171 3
193 -11z m-217 -90 c61 -32 114 -90 129 -143 13 -49 9 -162 -7 -177 -4 -5 -39
-10 -78 -12 l-69 -3 -10 35 c-5 19 -27 90 -48 158 -38 118 -39 125 -22 143 22
25 55 24 105 -1z m426 -97 c-15 -27 -43 -56 -97 -98 -14 -11 3 10 38 47 34 36
62 75 63 85 0 10 3 13 5 6 3 -6 -1 -24 -9 -40z m-309 -290 l37 -17 -39 -4
c-48 -4 -67 3 -60 23 8 19 16 19 62 -2z m135 -33 c-5 -28 -8 -31 -13 -15 -4
11 -2 28 4 37 14 24 17 17 9 -22z m-50 -120 c4 -56 3 -65 -3 -35 -9 40 -13
122 -6 114 2 -2 6 -38 9 -79z"/>
<path d="M1865 4129 c-23 -6 -18 -7 20 -3 44 4 187 -15 241 -32 17 -5 17 -4
-1 7 -51 32 -191 47 -260 28z"/>
<path d="M2108 4013 c7 -3 16 -2 19 1 4 3 -2 6 -13 5 -11 0 -14 -3 -6 -6z"/>
<path d="M2202 3976 c36 -18 79 -42 95 -53 56 -39 106 -67 99 -55 -11 19 -121
91 -179 118 -79 36 -92 28 -15 -10z"/>
<path d="M2702 3941 c-22 -16 -43 -35 -47 -41 -4 -6 16 5 44 25 46 33 58 45
48 45 -2 0 -22 -13 -45 -29z"/>
<path d="M2078 3753 c7 -3 16 -2 19 1 4 3 -2 6 -13 5 -11 0 -14 -3 -6 -6z"/>
<path d="M1798 3731 c-66 -22 -114 -49 -148 -87 l-25 -27 35 26 c20 14 63 39
95 54 53 24 71 28 155 27 110 0 155 -15 294 -94 48 -28 90 -49 92 -47 8 7 -62
56 -138 96 -135 72 -246 88 -360 52z"/>
<path d="M1769 3630 c-73 -13 -154 -61 -186 -109 -14 -22 -11 -21 22 8 62 54
130 81 206 81 76 0 129 -14 257 -70 51 -22 112 -42 135 -45 l42 -5 -50 18
c-27 11 -75 32 -105 47 -132 67 -233 91 -321 75z"/>
<path d="M3115 3620 c-22 -4 -81 -25 -130 -46 -50 -20 -115 -45 -145 -55 -30
-10 -48 -18 -39 -18 9 -1 90 22 180 50 145 45 172 50 230 46 64 -4 138 -32
199 -74 22 -15 22 -13 -5 15 -63 69 -188 104 -290 82z"/>
<path d="M4153 3521 c-28 -9 -73 -35 -98 -56 -72 -59 -145 -168 -77 -115 82
64 116 80 167 80 117 0 218 -55 256 -139 l23 -50 18 27 c68 103 -67 274 -214
272 -13 -1 -46 -9 -75 -19z"/>
<path d="M1870 3021 c56 -48 101 -64 160 -58 69 8 187 50 152 55 -12 2 -45 -1
-73 -7 -87 -19 -138 -14 -244 24 -16 6 -15 3 5 -14z"/>
<path d="M2167 2970 c-74 -67 -125 -90 -209 -90 -37 0 -79 5 -94 10 -45 18
-40 2 7 -20 55 -25 112 -25 212 -1 l78 19 -23 -25 c-42 -45 -112 -84 -198
-109 -122 -37 -170 -55 -170 -64 0 -4 24 0 53 10 28 10 97 32 153 49 85 26
108 37 145 74 51 50 100 110 130 161 l21 36 -25 0 c-16 0 -45 -18 -80 -50z"/>
<path d="M1734 2990 c-17 -17 19 -107 56 -145 l31 -30 -27 48 c-14 27 -32 68
-38 93 -8 33 -14 42 -22 34z"/>
<path d="M1828 2799 c-21 -11 -38 -22 -38 -25 0 -2 10 1 23 7 12 7 40 18 62
25 30 10 34 13 15 13 -14 0 -42 -9 -62 -20z"/>
<path d="M3185 3019 c-56 -21 -140 -21 -235 1 -31 7 -68 10 -82 7 l-27 -7 26
-45 c33 -59 80 -90 168 -111 78 -18 148 -14 181 11 17 13 16 14 -14 4 -43 -15
-132 -4 -182 21 -39 20 -116 87 -109 94 2 3 29 -4 59 -14 65 -23 158 -25 203
-6 30 13 91 67 71 65 -5 -1 -31 -10 -59 -20z"/>
<path d="M2932 2869 c8 -25 124 -96 176 -109 43 -10 60 -9 104 4 29 9 67 27
83 41 l30 25 -55 -25 c-95 -43 -194 -29 -285 39 -47 35 -58 41 -53 25z"/>
<path d="M2454 2939 c-17 -5 -38 -16 -45 -26 -13 -14 -11 -14 20 1 21 11 49
17 77 14 24 -2 40 0 36 4 -13 13 -57 17 -88 7z"/>
<path d="M2478 2883 c6 -2 18 -2 25 0 6 3 1 5 -13 5 -14 0 -19 -2 -12 -5z"/>
<path d="M2593 2880 c-35 -14 -28 -18 22 -12 31 3 53 0 72 -12 l28 -17 -28 25
c-29 27 -56 31 -94 16z"/>
<path d="M2336 2679 c-41 -32 -34 -60 27 -106 28 -22 65 -49 81 -59 16 -10 37
-36 47 -59 l19 -40 0 78 c0 71 -2 80 -25 100 -14 12 -46 41 -71 65 -25 23 -46
42 -48 42 -2 0 -15 -9 -30 -21z"/>
<path d="M2687 2671 c-3 -11 -28 -34 -56 -51 -39 -24 -53 -40 -61 -68 -11 -41
-12 -150 -1 -197 6 -28 7 -27 14 18 10 70 31 103 92 141 79 51 96 97 54 150
-24 31 -35 33 -42 7z"/>
<path d="M3017 2434 c-15 -15 -7 -45 11 -42 9 2 17 12 17 22 0 20 -16 31 -28
20z"/>
<path d="M2056 2412 c-3 -6 -1 -14 5 -17 15 -10 25 3 12 16 -7 7 -13 7 -17 1z"/>
<path d="M2007 2353 c-4 -3 -7 -15 -7 -25 0 -22 26 -24 34 -2 10 25 -10 45
-27 27z"/>
<path d="M3062 2318 c2 -13 10 -23 18 -23 8 0 16 10 18 23 3 17 -2 22 -18 22
-16 0 -21 -5 -18 -22z"/>
<path d="M3196 2112 c-10 -17 -86 -64 -123 -78 -28 -10 -32 -13 -15 -14 47 0
122 42 143 82 10 18 5 26 -5 10z"/>
<path d="M1970 2096 c0 -11 60 -36 82 -35 19 1 18 2 -7 8 -16 4 -40 13 -52 20
-13 6 -23 9 -23 7z"/>
<path d="M2090 4487 c66 -41 113 -82 152 -130 45 -57 52 -40 8 20 -34 46 -76
81 -137 112 -55 27 -68 27 -23 -2z"/>
<path d="M4025 1848 c0 -76 -5 -109 -29 -183 -34 -101 -235 -515 -294 -603
-21 -31 -42 -64 -47 -71 -10 -18 18 2 197 136 127 96 138 106 156 155 33 88
84 346 85 433 2 72 -2 87 -33 153 l-35 74 0 -94z"/>
<path d="M4340 1396 c0 -3 29 -38 65 -78 45 -49 65 -80 65 -98 0 -26 -34 -132
-129 -398 -28 -79 -51 -146 -51 -150 1 -13 101 172 186 340 101 202 104 219
41 282 -24 24 -64 55 -88 69 -46 26 -89 42 -89 33z"/>
<path d="M4610 1327 c0 -3 12 -12 26 -22 15 -9 23 -12 20 -6 -7 11 -46 35 -46
28z"/>
<path d="M1418 1218 c-115 -113 -248 -329 -262 -428 l-7 -45 20 42 c10 22 28
44 38 47 12 4 43 50 78 114 53 99 155 259 205 325 37 47 15 30 -72 -55z"/>
<path d="M4782 1198 c-6 -7 -19 -35 -29 -63 -11 -27 -67 -122 -125 -210 -102
-155 -171 -275 -408 -705 -62 -113 -115 -209 -117 -213 -3 -4 36 -6 87 -5 l91
3 34 75 c121 267 318 557 543 800 l97 105 -65 -50 c-143 -109 -401 -380 -492
-515 -65 -98 -67 -99 -23 -10 78 156 210 359 333 514 45 56 67 74 118 97 67
31 81 50 64 93 -12 31 -10 31 63 -22 26 -19 50 -32 53 -29 8 7 -101 99 -149
125 -48 25 -60 27 -75 10z"/>
<path d="M921 996 c-7 -8 -31 -23 -55 -34 -111 -53 -168 -182 -215 -496 -27
-176 -27 -208 8 -313 52 -154 51 -153 89 -153 24 0 32 4 29 13 -3 6 -27 59
-54 117 -42 93 -48 113 -47 170 2 183 109 500 219 649 25 33 43 61 41 61 -2 0
-9 -6 -15 -14z"/>
<path d="M896 708 c-63 -170 -111 -437 -90 -509 8 -28 13 -7 37 156 14 105 40
242 56 305 16 63 28 116 26 118 -1 1 -15 -30 -29 -70z"/>
<path d="M971 583 c-54 -134 -64 -206 -51 -362 11 -137 24 -206 39 -215 4 -3
11 79 14 182 4 103 13 250 22 326 8 77 13 141 11 143 -2 2 -18 -31 -35 -74z"/>
<path d="M3521 518 c11 -25 7 -35 -68 -150 -77 -119 -155 -254 -136 -233 6 6
53 76 106 158 53 81 101 147 106 147 16 0 141 -121 141 -135 0 -7 -41 -77 -91
-155 -50 -78 -88 -145 -84 -148 3 -3 12 1 19 9 27 26 186 284 186 299 0 16
-119 168 -165 210 l-27 25 13 -27z"/>
<path d="M1380 463 c0 -24 -8 -45 -22 -61 l-23 -25 28 18 c23 15 27 24 27 61
0 24 -2 44 -5 44 -3 0 -5 -17 -5 -37z"/>
<path d="M3212 423 c-45 -77 -92 -170 -162 -320 -35 -74 -45 -103 -34 -103 8
0 14 5 14 11 0 7 51 117 114 245 63 129 113 234 111 234 -1 0 -21 -30 -43 -67z"/>
<path d="M496 339 c-53 -111 -63 -172 -45 -255 12 -54 14 -56 16 -24 6 76 37
228 59 294 13 38 22 72 19 74 -3 3 -25 -37 -49 -89z"/>
<path d="M3956 310 c-42 -62 -94 -165 -140 -274 l-15 -36 47 0 47 0 57 187
c31 103 55 189 54 191 -2 1 -24 -29 -50 -68z"/>
<path d="M4472 228 c-50 -92 -105 -218 -98 -225 13 -14 39 11 61 59 24 53 86
238 80 238 -2 0 -21 -33 -43 -72z"/>
<path d="M1406 223 c-9 -57 -7 -223 3 -223 5 0 8 58 8 130 0 72 -2 130 -3 130
-1 0 -4 -17 -8 -37z"/>
</g>
</svg>